<svg width="286" height="95" viewBox="0 0 286 95" fill="none" xmlns="http://www.w3.org/2000/svg">
<path d="M122.891 49.625C122.734 48.9375 122.734 48.5 122.891 48.3125C123.078 48.0938 123.484 47.9062 124.109 47.75C124.328 46.8438 124.531 45.9844 124.719 45.1719C124.906 44.3594 125.094 43.5625 125.281 42.7812C125.812 40.5312 126.312 38.5312 126.781 36.7812C127.281 35 127.734 33.4062 128.141 32C128.578 30.5938 128.984 29.3281 129.359 28.2031C129.734 27.0781 130.094 26.0312 130.438 25.0625C130.781 24.8125 131.125 24.625 131.469 24.5C131.812 24.3438 132.141 24.2188 132.453 24.125C132.797 24 133.156 23.9062 133.531 23.8438C133.844 23.8125 134.125 23.8125 134.375 23.8438C134.594 23.875 134.781 23.9375 134.938 24.0312C135.094 24.125 135.188 24.2656 135.219 24.4531C134.031 27.6094 133 30.5312 132.125 33.2188C131.281 35.9062 130.578 38.2344 130.016 40.2031C129.359 42.5156 128.812 44.625 128.375 46.5312C129.875 45.9375 131.312 45.0938 132.688 44C134.094 42.875 135.375 41.6406 136.531 40.2969C137.688 38.9219 138.719 37.5 139.625 36.0312C140.562 34.5312 141.312 33.0938 141.875 31.7188C142.438 30.3438 142.812 29.0781 143 27.9219C143.219 26.7656 143.188 25.8438 142.906 25.1562C143.656 24.8125 144.359 24.5469 145.016 24.3594C145.359 24.2344 145.688 24.1406 146 24.0781C146.812 23.8594 147.312 24 147.5 24.5C147.719 24.9688 147.797 25.6875 147.734 26.6562C147.641 28.875 147.078 31.0469 146.047 33.1719C145.047 35.2969 143.766 37.2969 142.203 39.1719C140.641 41.0156 138.906 42.6719 137 44.1406C135.125 45.6094 133.266 46.7656 131.422 47.6094C131.953 47.5469 132.469 47.5 132.969 47.4688C133.469 47.4375 133.938 47.4219 134.375 47.4219C135.219 47.4219 136 47.5156 136.719 47.7031C137.438 47.8594 138.062 48.1406 138.594 48.5469C139.156 48.9531 139.578 49.4844 139.859 50.1406C140.172 50.7969 140.312 51.6094 140.281 52.5781C140.219 54.0781 140.016 55.4062 139.672 56.5625C139.328 57.7188 138.953 58.7812 138.547 59.75C138.172 60.75 137.812 61.6719 137.469 62.5156C137.125 63.3594 136.938 64.2188 136.906 65.0938C136.875 65.9688 137 66.6875 137.281 67.25C137.562 67.8438 137.922 68.3125 138.359 68.6562C138.828 69.0312 139.312 69.2969 139.812 69.4531C140.312 69.6094 140.781 69.6875 141.219 69.6875C141.75 69.6875 142.328 69.625 142.953 69.5C143.578 69.4062 144.125 69.2812 144.594 69.125C144.781 69.0625 144.922 69.1094 145.016 69.2656C145.141 69.4219 145.203 69.5625 145.203 69.6875C145.203 69.8125 145.125 70.0312 144.969 70.3438C144.812 70.6875 144.516 70.9531 144.078 71.1406C143.641 71.3594 143.078 71.5781 142.391 71.7969C141.703 72.0156 140.766 72.125 139.578 72.125C138.797 72.125 137.984 71.9375 137.141 71.5625C136.297 71.2188 135.531 70.7188 134.844 70.0625C134.156 69.4375 133.594 68.7031 133.156 67.8594C132.719 67.0156 132.531 66.1094 132.594 65.1406C132.625 64.1094 132.812 63.0781 133.156 62.0469C133.5 61.0156 133.859 60.0156 134.234 59.0469C134.641 58.0781 135 57.1562 135.312 56.2812C135.656 55.375 135.844 54.5312 135.875 53.75C135.938 52.3438 135.578 51.2969 134.797 50.6094C134.016 49.8906 132.688 49.5312 130.812 49.5312C130.188 49.5312 129.594 49.5625 129.031 49.625C128.5 49.6875 128.062 49.75 127.719 49.8125C126.875 54.0625 126.297 57.2656 125.984 59.4219C125.672 61.5781 125.5 62.9844 125.469 63.6406V64.4844C125.469 64.7344 125.484 64.9844 125.516 65.2344C125.547 65.5156 125.594 65.7812 125.656 66.0312C125.094 66.4375 124.531 66.7344 123.969 66.9219C123.438 67.1406 122.953 67.2969 122.516 67.3906C121.984 67.5156 121.5 67.5781 121.062 67.5781C120.844 67.5781 120.641 67.5469 120.453 67.4844C120.297 67.4219 120.141 67.3594 119.984 67.2969C119.797 67.2344 119.672 67.125 119.609 66.9688C120.109 64.875 120.594 62.8594 121.062 60.9219C121.531 58.9844 121.938 57.25 122.281 55.7188C122.688 53.9688 123.078 52.2969 123.453 50.7031C123.328 50.5781 123.219 50.4375 123.125 50.2812C123.031 50.125 122.953 49.9062 122.891 49.625ZM155.656 68.1406C154.125 68.1406 152.75 67.7344 151.531 66.9219C150.312 66.1406 149.281 65.0625 148.438 63.6875C147.594 62.3125 146.969 60.7188 146.562 58.9062C146.188 57.0938 146.047 55.1719 146.141 53.1406C146.266 50.9844 146.594 48.7656 147.125 46.4844C147.656 44.1719 148.375 41.9219 149.281 39.7344C150.188 37.5469 151.234 35.4688 152.422 33.5C153.641 31.5312 154.969 29.8125 156.406 28.3438C157.875 26.875 159.438 25.7188 161.094 24.875C162.75 24 164.484 23.5625 166.297 23.5625C167.484 23.5625 168.484 23.8594 169.297 24.4531C170.109 25.0469 170.734 25.8281 171.172 26.7969C171.641 27.7344 171.938 28.7969 172.062 29.9844C172.188 31.1719 172.172 32.3594 172.016 33.5469C171.891 34.7031 171.625 35.8281 171.219 36.9219C170.844 37.9844 170.375 38.8594 169.812 39.5469C169.094 40.4531 168.438 40.9375 167.844 41C167.281 41.0312 166.734 40.8594 166.203 40.4844C165.984 40.2969 165.766 40.0781 165.547 39.8281C165.328 39.6094 165.094 39.3438 164.844 39.0312C164.594 38.6875 164.328 38.2656 164.047 37.7656C164.641 37.5469 165.188 37.1875 165.688 36.6875C166.188 36.1562 166.609 35.5625 166.953 34.9062C167.328 34.25 167.609 33.5625 167.797 32.8438C168.016 32.0938 168.141 31.3594 168.172 30.6406C168.203 30.0781 168.188 29.5313 168.125 29C168.062 28.4375 167.938 27.9531 167.75 27.5469C167.562 27.1094 167.297 26.7656 166.953 26.5156C166.641 26.2344 166.234 26.0938 165.734 26.0938C164.484 26.0938 163.266 26.5781 162.078 27.5469C160.891 28.4844 159.766 29.75 158.703 31.3438C157.672 32.9062 156.703 34.7031 155.797 36.7344C154.922 38.7656 154.156 40.8594 153.5 43.0156C152.844 45.1719 152.312 47.2969 151.906 49.3906C151.5 51.4844 151.25 53.3906 151.156 55.1094C151.031 57.2656 151.109 59.0156 151.391 60.3594C151.672 61.7031 152.047 62.75 152.516 63.5C153.016 64.2812 153.547 64.7969 154.109 65.0469C154.672 65.3281 155.188 65.4688 155.656 65.4688C156.531 65.4688 157.516 65.0625 158.609 64.25C159.703 63.4375 160.75 62.3281 161.75 60.9219C162.75 59.5469 163.641 57.9531 164.422 56.1406C165.234 54.3281 165.812 52.4219 166.156 50.4219C165.375 50.4219 164.578 50.4375 163.766 50.4688C162.984 50.4688 162.234 50.4844 161.516 50.5156C160.797 50.5469 160.156 50.5938 159.594 50.6562C159.031 50.6875 158.594 50.7344 158.281 50.7969C158.062 50.7031 157.906 50.5938 157.812 50.4688C157.75 50.3438 157.688 50.2031 157.625 50.0469C157.562 49.9219 157.531 49.7656 157.531 49.5781C157.531 49.3906 157.562 49.2188 157.625 49.0625C157.688 48.9062 157.766 48.75 157.859 48.5938C157.953 48.4062 158.078 48.2188 158.234 48.0312C159.234 47.8438 160.219 47.6875 161.188 47.5625C162.156 47.4375 163.156 47.3438 164.188 47.2812C165.25 47.1875 166.375 47.125 167.562 47.0938C168.781 47.0312 170.141 46.9844 171.641 46.9531C172.266 46.9219 172.641 47 172.766 47.1875C172.922 47.375 172.875 47.8438 172.625 48.5938C172.438 49.1875 172.188 49.6719 171.875 50.0469C171.594 50.4219 171.109 50.5781 170.422 50.5156C170.203 50.5156 170.031 50.5 169.906 50.4688C169.625 52.3125 169.031 54.2656 168.125 56.3281C167.219 58.3906 166.109 60.2969 164.797 62.0469C163.484 63.7969 162.031 65.25 160.438 66.4062C158.875 67.5625 157.281 68.1406 155.656 68.1406ZM171.922 65.7031C172.047 65.6094 172.25 65.4531 172.531 65.2344C172.781 65.0156 173.094 64.6094 173.469 64.0156C173.812 63.4219 174.203 62.5625 174.641 61.4375C175.078 60.3125 175.531 58.7812 176 56.8438C176.25 55.8125 176.578 54.5 176.984 52.9062C177.391 51.3125 177.828 49.6094 178.297 47.7969C178.797 45.9844 179.297 44.125 179.797 42.2188C180.297 40.2812 180.781 38.4531 181.25 36.7344C181.719 34.9844 182.141 33.4062 182.516 32C182.891 30.5938 183.188 29.5 183.406 28.7188C182.812 29.0938 182.234 29.5156 181.672 29.9844C181.172 30.3906 180.641 30.8594 180.078 31.3906C179.516 31.8906 178.969 32.4219 178.438 32.9844C178.031 32.6406 177.719 32.2656 177.5 31.8594C177.375 31.6719 177.266 31.4688 177.172 31.25C176.984 30.7813 176.891 30.2969 176.891 29.7969C176.891 29.2969 177.281 28.7813 178.062 28.25C178.469 27.9688 179.078 27.5625 179.891 27.0313C180.734 26.5 181.766 25.9844 182.984 25.4844C184.203 24.9531 185.625 24.5 187.25 24.125C188.875 23.75 190.672 23.5625 192.641 23.5625C194.609 23.5625 196.188 23.9531 197.375 24.7344C198.594 25.5156 199.516 26.4688 200.141 27.5938C200.797 28.7188 201.219 29.9063 201.406 31.1563C201.594 32.4062 201.641 33.5 201.547 34.4375C201.359 36.1875 200.797 38.0156 199.859 39.9219C198.922 41.8281 197.625 43.5938 195.969 45.2188C194.312 46.8125 192.297 48.1719 189.922 49.2969C187.547 50.4219 184.828 51.0625 181.766 51.2188C181.516 52.4062 181.266 53.625 181.016 54.875C180.766 56.125 180.5 57.3594 180.219 58.5781C179.938 59.7656 179.641 60.875 179.328 61.9062C179.047 62.9688 178.75 63.875 178.438 64.625C178.125 65.4375 177.719 66.0781 177.219 66.5469C176.719 67.0469 175.922 67.2969 174.828 67.2969C174.266 67.2969 173.75 67.1562 173.281 66.875C172.781 66.5938 172.328 66.2031 171.922 65.7031ZM183.031 44.3281C182.938 44.8281 182.812 45.4844 182.656 46.2969C182.531 47.0781 182.375 47.9688 182.188 48.9688C183.031 48.8438 183.969 48.625 185 48.3125C186.031 47.9688 187.062 47.5156 188.094 46.9531C189.125 46.3906 190.125 45.7188 191.094 44.9375C192.094 44.125 193 43.2031 193.812 42.1719C194.625 41.1094 195.297 39.9219 195.828 38.6094C196.391 37.2656 196.75 35.7812 196.906 34.1562C197.062 32.5938 196.969 31.2969 196.625 30.2656C196.312 29.2031 195.844 28.3594 195.219 27.7344C194.594 27.0781 193.875 26.625 193.062 26.375C192.25 26.0938 191.438 25.9531 190.625 25.9531C189.844 25.9531 189.078 26.0625 188.328 26.2813C187.578 26.5 186.828 26.7812 186.078 27.125C186.172 27.1562 186.281 27.2344 186.406 27.3594C186.594 27.5469 186.734 27.8125 186.828 28.1563C186.078 31.1875 185.453 33.7188 184.953 35.75C184.484 37.7812 184.109 39.4375 183.828 40.7188C183.484 42.2188 183.219 43.4219 183.031 44.3281ZM213.172 41.75C213.578 41.4375 213.969 41.2031 214.344 41.0469C214.75 40.8594 215.109 40.7344 215.422 40.6719C215.766 40.5781 216.109 40.5469 216.453 40.5781C217.297 40.6406 217.812 40.9062 218 41.375C218.219 41.8438 218.25 42.5938 218.094 43.625C218 44.1563 217.812 44.8281 217.531 45.6406C217.25 46.4531 216.922 47.4531 216.547 48.6406C216.172 49.7969 215.766 51.125 215.328 52.625C214.922 54.125 214.531 55.8125 214.156 57.6875C213.781 59.2188 213.375 60.9844 212.938 62.9844C212.562 64.7344 212.109 66.8438 211.578 69.3125C211.078 71.7812 210.531 74.6094 209.938 77.7969C209.781 78.5781 209.438 79.0312 208.906 79.1562C208.406 79.2812 207.875 79.2188 207.312 78.9688C207.094 78.8438 206.891 78.7031 206.703 78.5469C206.547 78.3906 206.375 78.2031 206.188 77.9844C206 77.7969 205.844 77.5312 205.719 77.1875C206.438 74.5625 207.062 72.1719 207.594 70.0156C208.156 67.8594 208.656 65.9844 209.094 64.3906C209.562 62.5469 210 60.8906 210.406 59.4219C210.562 58.7656 210.703 58.125 210.828 57.5C210.984 56.8438 211.141 56.2031 211.297 55.5781C210.891 56.2344 210.453 56.8594 209.984 57.4531C209.516 58.0469 209 58.5625 208.438 59C207.875 59.4375 207.266 59.7656 206.609 59.9844C205.984 60.2344 205.328 60.3125 204.641 60.2188C202.953 60 201.75 59.375 201.031 58.3438C200.344 57.3125 200.047 55.9688 200.141 54.3125C200.172 53.6563 200.266 52.9375 200.422 52.1563C200.578 51.375 200.75 50.625 200.938 49.9063C201.125 49.1875 201.297 48.5469 201.453 47.9844C201.641 47.3906 201.781 46.9688 201.875 46.7188C202.25 45.5312 202.516 44.5156 202.672 43.6719C202.859 42.8281 202.734 42.125 202.297 41.5625C202.734 41.2812 203.141 41.0938 203.516 41C203.922 40.875 204.281 40.7812 204.594 40.7188C204.938 40.6875 205.281 40.6875 205.625 40.7188C206.469 40.8438 206.953 41.1562 207.078 41.6562C207.234 42.1562 207.188 42.9062 206.938 43.9062C206.812 44.4375 206.609 45.125 206.328 45.9688C206.047 46.7813 205.75 47.625 205.438 48.5C205.125 49.375 204.844 50.1875 204.594 50.9375C204.344 51.6563 204.203 52.1719 204.172 52.4844C203.891 53.8906 203.875 54.9844 204.125 55.7656C204.375 56.5156 204.922 56.8906 205.766 56.8906C206.172 56.8906 206.625 56.7188 207.125 56.375C207.625 56 208.125 55.5156 208.625 54.9219C209.156 54.3281 209.672 53.6563 210.172 52.9063C210.672 52.125 211.125 51.3438 211.531 50.5625C211.969 49.7813 212.344 49.0156 212.656 48.2656C213 47.5156 213.25 46.8438 213.406 46.25C213.625 45.0938 213.766 44.1875 213.828 43.5312C213.891 42.875 213.672 42.2812 213.172 41.75ZM244.391 49.6719C243.953 50.2969 243.391 51.0781 242.703 52.0156C242.016 52.9219 241.297 53.8438 240.547 54.7813C239.828 55.6875 239.109 56.5313 238.391 57.3125C237.703 58.0625 237.125 58.5938 236.656 58.9063C236.344 59.0938 235.984 59.25 235.578 59.375C235.172 59.5 234.75 59.5781 234.312 59.6094C233.906 59.6406 233.516 59.6094 233.141 59.5156C232.766 59.4531 232.438 59.3281 232.156 59.1406C231.875 58.9219 231.641 58.6094 231.453 58.2031C231.297 57.8594 231.141 57.4063 230.984 56.8438C230.859 56.2813 230.812 55.5781 230.844 54.7344C230.094 55.9844 229.266 56.9531 228.359 57.6406C227.453 58.2969 226.594 58.7813 225.781 59.0938C224.844 59.4375 223.906 59.6406 222.969 59.7031C222.531 59.7031 222.062 59.5469 221.562 59.2344C221.062 58.9531 220.641 58.5 220.297 57.875C219.953 57.2188 219.734 56.3906 219.641 55.3906C219.547 54.3594 219.672 53.1406 220.016 51.7344C220.453 49.8281 221.141 48.0938 222.078 46.5313C223.047 44.9688 224.094 43.6406 225.219 42.5469C226.344 41.4219 227.453 40.5781 228.547 40.0156C229.641 39.4531 230.547 39.2031 231.266 39.2656C232.109 39.4219 232.797 39.6719 233.328 40.0156C233.766 40.3281 234.047 40.7969 234.172 41.4219C234.328 42.0156 234.078 42.8125 233.422 43.8125C233.859 43.7188 234.219 43.6563 234.5 43.625C234.812 43.5938 235.047 43.5781 235.203 43.5781C235.391 43.5781 235.516 43.5938 235.578 43.625C235.609 43.6875 235.625 43.8281 235.625 44.0469C235.625 44.2344 235.578 44.5938 235.484 45.125C235.391 45.6563 235.25 46.375 235.062 47.2813C234.875 48.1875 234.625 49.3594 234.312 50.7969C234.25 51.0781 234.188 51.3438 234.125 51.5938C234.094 51.8125 234.047 52.0469 233.984 52.2969C233.953 52.5156 233.906 52.7813 233.844 53.0938C233.781 53.4063 233.703 53.7969 233.609 54.2656C233.578 54.5469 233.562 54.8594 233.562 55.2031C233.594 55.5156 233.656 55.8125 233.75 56.0938C233.844 56.375 233.984 56.6094 234.172 56.7969C234.391 56.9531 234.688 57.0313 235.062 57.0313C235.375 57.0313 235.781 56.8438 236.281 56.4688C236.781 56.0625 237.312 55.5625 237.875 54.9688C238.438 54.3438 239.016 53.6719 239.609 52.9531C240.234 52.2031 240.812 51.4844 241.344 50.7969C241.875 50.1094 242.344 49.5 242.75 48.9688C243.188 48.4375 243.5 48.0469 243.688 47.7969C243.938 47.5156 244.188 47.3594 244.438 47.3281C244.688 47.2656 244.875 47.3281 245 47.5156C245.125 47.7031 245.141 47.9844 245.047 48.3594C244.984 48.7344 244.766 49.1719 244.391 49.6719ZM230.656 51.7344C230.812 51.1094 231 50.375 231.219 49.5313C231.438 48.6875 231.625 47.875 231.781 47.0938C231.938 46.3125 232.047 45.6719 232.109 45.1719C232.203 44.6406 232.188 44.3906 232.062 44.4219C231.906 44.4531 231.734 44.5 231.547 44.5625C231.391 44.625 231.188 44.6719 230.938 44.7031C230.688 44.7344 230.438 44.7813 230.188 44.8438C230.438 44.3438 230.578 43.9375 230.609 43.625C230.672 43.2813 230.688 43.0156 230.656 42.8281C230.625 42.6094 230.562 42.4375 230.469 42.3125C230.125 42.0313 229.516 42.2656 228.641 43.0156C227.797 43.7344 226.812 45.0781 225.688 47.0469C225.219 47.8594 224.844 48.7344 224.562 49.6719C224.281 50.5781 224.078 51.4375 223.953 52.25C223.859 53.0625 223.844 53.7813 223.906 54.4063C223.969 55 224.094 55.3906 224.281 55.5781C224.625 55.9219 225.016 56.0938 225.453 56.0938C225.891 56.0625 226.328 55.9375 226.766 55.7188C227.234 55.4688 227.688 55.1563 228.125 54.7813C228.594 54.4063 229 54.0156 229.344 53.6094C229.719 53.2031 230.016 52.8281 230.234 52.4844C230.484 52.1406 230.625 51.8906 230.656 51.7344ZM265.297 49.6719C264.859 50.2969 264.297 51.0781 263.609 52.0156C262.922 52.9219 262.203 53.8438 261.453 54.7813C260.734 55.6875 260.016 56.5313 259.297 57.3125C258.609 58.0625 258.031 58.5938 257.562 58.9063C257.25 59.0938 256.891 59.25 256.484 59.375C256.078 59.5 255.656 59.5781 255.219 59.6094C254.812 59.6406 254.422 59.6094 254.047 59.5156C253.672 59.4531 253.344 59.3281 253.062 59.1406C252.781 58.9219 252.547 58.6094 252.359 58.2031C252.203 57.8594 252.047 57.4063 251.891 56.8438C251.766 56.2813 251.719 55.5781 251.75 54.7344C251 55.9844 250.172 56.9531 249.266 57.6406C248.359 58.2969 247.5 58.7813 246.688 59.0938C245.75 59.4375 244.812 59.6406 243.875 59.7031C243.438 59.7031 242.969 59.5469 242.469 59.2344C241.969 58.9531 241.547 58.5 241.203 57.875C240.859 57.2188 240.641 56.3906 240.547 55.3906C240.453 54.3594 240.578 53.1406 240.922 51.7344C241.359 49.8281 242.047 48.0938 242.984 46.5313C243.953 44.9688 245 43.6406 246.125 42.5469C247.25 41.4219 248.359 40.5781 249.453 40.0156C250.547 39.4531 251.453 39.2031 252.172 39.2656C253.016 39.4219 253.703 39.6719 254.234 40.0156C254.672 40.3281 254.953 40.7969 255.078 41.4219C255.234 42.0156 254.984 42.8125 254.328 43.8125C254.766 43.7188 255.125 43.6563 255.406 43.625C255.719 43.5938 255.953 43.5781 256.109 43.5781C256.297 43.5781 256.422 43.5938 256.484 43.625C256.516 43.6875 256.531 43.8281 256.531 44.0469C256.531 44.2344 256.484 44.5938 256.391 45.125C256.297 45.6563 256.156 46.375 255.969 47.2813C255.781 48.1875 255.531 49.3594 255.219 50.7969C255.156 51.0781 255.094 51.3438 255.031 51.5938C255 51.8125 254.953 52.0469 254.891 52.2969C254.859 52.5156 254.812 52.7813 254.75 53.0938C254.688 53.4063 254.609 53.7969 254.516 54.2656C254.484 54.5469 254.469 54.8594 254.469 55.2031C254.5 55.5156 254.562 55.8125 254.656 56.0938C254.75 56.375 254.891 56.6094 255.078 56.7969C255.297 56.9531 255.594 57.0313 255.969 57.0313C256.281 57.0313 256.688 56.8438 257.188 56.4688C257.688 56.0625 258.219 55.5625 258.781 54.9688C259.344 54.3438 259.922 53.6719 260.516 52.9531C261.141 52.2031 261.719 51.4844 262.25 50.7969C262.781 50.1094 263.25 49.5 263.656 48.9688C264.094 48.4375 264.406 48.0469 264.594 47.7969C264.844 47.5156 265.094 47.3594 265.344 47.3281C265.594 47.2656 265.781 47.3281 265.906 47.5156C266.031 47.7031 266.047 47.9844 265.953 48.3594C265.891 48.7344 265.672 49.1719 265.297 49.6719ZM251.562 51.7344C251.719 51.1094 251.906 50.375 252.125 49.5313C252.344 48.6875 252.531 47.875 252.688 47.0938C252.844 46.3125 252.953 45.6719 253.016 45.1719C253.109 44.6406 253.094 44.3906 252.969 44.4219C252.812 44.4531 252.641 44.5 252.453 44.5625C252.297 44.625 252.094 44.6719 251.844 44.7031C251.594 44.7344 251.344 44.7813 251.094 44.8438C251.344 44.3438 251.484 43.9375 251.516 43.625C251.578 43.2813 251.594 43.0156 251.562 42.8281C251.531 42.6094 251.469 42.4375 251.375 42.3125C251.031 42.0313 250.422 42.2656 249.547 43.0156C248.703 43.7344 247.719 45.0781 246.594 47.0469C246.125 47.8594 245.75 48.7344 245.469 49.6719C245.188 50.5781 244.984 51.4375 244.859 52.25C244.766 53.0625 244.75 53.7813 244.812 54.4063C244.875 55 245 55.3906 245.188 55.5781C245.531 55.9219 245.922 56.0938 246.359 56.0938C246.797 56.0625 247.234 55.9375 247.672 55.7188C248.141 55.4688 248.594 55.1563 249.031 54.7813C249.5 54.4063 249.906 54.0156 250.25 53.6094C250.625 53.2031 250.922 52.8281 251.141 52.4844C251.391 52.1406 251.531 51.8906 251.562 51.7344ZM260.375 58.7656C260.156 59.1094 259.922 59.3281 259.672 59.4219C259.391 59.5469 259.156 59.5625 258.969 59.4688C258.75 59.4063 258.609 59.25 258.547 59C258.484 58.75 258.547 58.4375 258.734 58.0625C258.828 57.875 259.047 57.4531 259.391 56.7969C259.703 56.1406 260.094 55.3594 260.562 54.4531C261 53.5156 261.484 52.5156 262.016 51.4531C262.547 50.3594 263.047 49.3281 263.516 48.3594C264.016 47.3906 264.469 46.5313 264.875 45.7813C265.281 45 265.578 44.4375 265.766 44.0938C265.422 43.7813 265.188 43.5625 265.062 43.4375C264.938 43.2813 264.844 42.9688 264.781 42.5C264.719 42.0938 264.812 41.5625 265.062 40.9063C265.312 40.25 265.641 39.625 266.047 39.0313C266.453 38.4063 266.906 37.875 267.406 37.4375C267.906 37 268.391 36.7813 268.859 36.7813C269.734 36.7813 270.344 37.0625 270.688 37.625C271.062 38.1875 271.281 38.7656 271.344 39.3594C271.406 39.7656 271.375 40.2813 271.25 40.9063C271.125 41.5313 270.891 42.0938 270.547 42.5938C270.641 42.6563 270.766 42.7344 270.922 42.8281C271.078 42.8906 271.328 42.9219 271.672 42.9219C272.172 42.9219 272.516 42.8906 272.703 42.8281C272.922 42.7656 273.25 42.7344 273.688 42.7344C274.219 42.7344 274.656 42.875 275 43.1563C275.344 43.4063 275.625 43.7344 275.844 44.1406C276.062 44.5156 276.219 44.9375 276.312 45.4063C276.438 45.8438 276.516 46.25 276.547 46.625C276.641 47.4063 276.438 48.2188 275.938 49.0625C275.438 49.9063 274.828 50.8281 274.109 51.8281C273.672 52.4531 273.234 53.1563 272.797 53.9375C272.359 54.7188 272.172 55.4219 272.234 56.0469C272.297 56.4531 272.406 56.7813 272.562 57.0313C272.719 57.2813 273.156 57.4063 273.875 57.4063C274.406 57.4063 274.984 57.2188 275.609 56.8438C276.266 56.4375 276.922 55.9375 277.578 55.3438C278.266 54.7188 278.938 54.0469 279.594 53.3281C280.25 52.5781 280.859 51.8594 281.422 51.1719C281.984 50.4531 282.453 49.8125 282.828 49.25C283.234 48.6875 283.531 48.2813 283.719 48.0313C283.875 47.7813 284.078 47.6094 284.328 47.5156C284.578 47.4219 284.797 47.4219 284.984 47.5156C285.172 47.6094 285.281 47.7969 285.312 48.0781C285.375 48.3594 285.266 48.7344 284.984 49.2031C284.797 49.5156 284.469 50.0156 284 50.7031C283.562 51.3906 283.016 52.1563 282.359 53C281.734 53.8438 281.031 54.7188 280.25 55.625C279.469 56.5 278.641 57.3125 277.766 58.0625C276.922 58.7813 276.062 59.375 275.188 59.8438C274.344 60.3125 273.531 60.5469 272.75 60.5469C271.938 60.5469 271.266 60.3906 270.734 60.0781C270.203 59.7656 269.766 59.3906 269.422 58.9531C269.109 58.4844 268.875 57.9844 268.719 57.4531C268.594 56.8906 268.547 56.375 268.578 55.9063C268.609 55.5313 268.703 55.1406 268.859 54.7344C269.047 54.2969 269.25 53.8594 269.469 53.4219C269.719 52.9531 269.969 52.5 270.219 52.0625C270.5 51.5938 270.75 51.1406 270.969 50.7031C271.5 49.7969 271.922 49.0313 272.234 48.4063C272.578 47.75 272.75 47.2031 272.75 46.7656C272.75 46.4844 272.688 46.2344 272.562 46.0156C272.438 45.7969 272.234 45.6875 271.953 45.6875C271.766 45.6875 271.625 45.7031 271.531 45.7344C271.469 45.7344 271.391 45.7344 271.297 45.7344C271.234 45.7344 271.125 45.75 270.969 45.7813C270.844 45.7813 270.641 45.7813 270.359 45.7813C269.953 45.7813 269.609 45.7188 269.328 45.5938C269.047 45.4688 268.781 45.375 268.531 45.3125C268.406 45.5313 268.125 46 267.688 46.7188C267.25 47.4375 266.734 48.2813 266.141 49.25C265.578 50.2188 264.969 51.2344 264.312 52.2969C263.688 53.3594 263.094 54.3594 262.531 55.2969C261.969 56.2031 261.5 56.9844 261.125 57.6406C260.719 58.2656 260.469 58.6406 260.375 58.7656Z" fill="#DD2E44"/>
<g clip-path="url(#clip0)">
<path d="M42.5652 46.0328L5.61809 9.09099C4.58629 8.06183 8.31768 4.33044 9.34948 5.35697L46.2966 42.3014C47.3284 43.3332 43.0798 46.55 42.5652 46.0328V46.0328Z" fill="#474363"/>
<path d="M85.8753 29.1079C84.4852 23.1338 80.7788 17.9566 75.5715 14.7152C70.3641 11.4739 64.0825 10.4339 58.1084 11.824C54.5275 12.6571 51.1974 14.3335 48.3953 16.7137C45.5933 19.0939 43.4003 22.1089 41.999 25.5079C39.241 23.0768 35.9422 21.3396 32.3772 20.441C28.8122 19.5425 25.0841 19.5084 21.5033 20.3418C15.5292 21.732 10.352 25.4384 7.1106 30.6457C3.86925 35.853 2.82925 42.1347 4.21939 48.1088C4.62967 49.872 5.251 51.5291 6.01614 53.0824C13.6668 71.7905 40.0449 87.2626 56.8409 89.2905C71.0141 80.0589 87.8536 54.5276 86.4544 34.3675C86.4597 32.6323 86.2856 30.8711 85.8753 29.1079V29.1079Z" fill="#DD2E44"/>
<path d="M91.4322 67.9884C91.4322 67.9884 79.5334 56.2453 74.5169 56.2453L59.5887 56.2216L56.4352 59.375L56.459 74.3032C56.459 79.3198 68.202 91.2185 68.202 91.2185C70.4662 93.2953 73.2819 94.3957 75.3139 94.3957C76.9869 94.3957 78.3222 93.6674 79.2854 92.3506C80.1034 91.2238 80.4096 89.7328 80.4096 87.912C80.4096 84.6028 78.9423 80.3542 76.7415 76.5304C80.5652 78.7286 84.8139 80.1985 88.123 80.1985C89.9412 80.1985 91.4348 79.8924 92.5616 79.0743C93.8784 78.1111 94.6068 76.7759 94.6068 75.1028C94.6094 73.0682 93.509 70.2552 91.4322 67.9884V67.9884Z" fill="#9792FF"/>
<path d="M83.307 85.8747C82.6315 85.8747 82.0219 85.5527 81.5047 85.0382L46.1726 49.6823C45.1408 48.6505 48.8722 44.9191 49.904 45.9483L85.2387 81.3068C85.7297 81.8127 86.0015 82.4917 85.9951 83.1967C85.9886 83.9016 85.7045 84.5756 85.2044 85.0725C84.7006 85.5768 84.0198 85.8646 83.307 85.8747Z" fill="#474363"/>
<path d="M0.4249 2.96346C0.426238 2.56319 0.518343 2.16843 0.694286 1.8089C0.870228 1.44936 1.12542 1.13441 1.44067 0.887756C1.75592 0.641097 2.123 0.469151 2.5143 0.384857C2.9056 0.300563 3.31092 0.306116 3.69976 0.401099L20.9607 4.68929C22.1535 4.98749 22.8871 6.06415 22.9636 7.29915C22.9523 7.89602 22.7394 8.47149 22.3594 8.93194C21.9795 9.39239 21.4549 9.71071 20.871 9.83513C20.491 9.91693 11.276 12.0333 10.3023 20.5253C10.2348 21.1372 9.95523 21.7061 9.51217 22.1335C9.0691 22.5609 8.49043 22.8198 7.87651 22.8652C7.26258 22.9107 6.65211 22.7398 6.15094 22.3823C5.64978 22.0248 5.28954 21.5032 5.13268 20.9079L0.514622 3.64429C0.454675 3.42233 0.424503 3.19338 0.4249 2.96346V2.96346Z" fill="#9792FF"/>
<path d="M58.5411 42.2618C58.4996 42.8931 58.2327 43.4884 57.789 43.9394C57.3453 44.3903 56.7544 44.6669 56.1239 44.7186C47.5 45.4285 46.2281 50.3131 44.9957 55.0367L44.7107 56.1213C44.619 56.4555 44.4624 56.7684 44.2499 57.0421C44.0373 57.3159 43.7728 57.545 43.4717 57.7166C42.8635 58.063 42.1425 58.1536 41.4675 57.9685C40.7925 57.7834 40.2186 57.3377 39.8722 56.7295C39.5258 56.1212 39.4352 55.4003 39.6203 54.7253L39.8921 53.7067C41.1825 48.7588 43.3385 40.4779 55.6938 39.4593C56.0716 39.4286 56.4517 39.4796 56.8081 39.6089C57.1644 39.7382 57.4888 39.9428 57.759 40.2088C58.0292 40.4747 58.2389 40.7958 58.3739 41.15C58.5088 41.5043 58.5659 41.8835 58.5411 42.2618V42.2618Z" fill="#CB2742"/>
</g>
<defs>
<clipPath id="clip0">
<rect width="95" height="95" fill="white"/>
</clipPath>
</defs>
</svg>
